<svg width="20px" height="20px" viewBox="0 0 20 20" version="1.1" xmlns="http://www.w3.org/2000/svg" xmlns:xlink="http://www.w3.org/1999/xlink">
    <!-- Generator: Sketch 44.1 (41455) - http://www.bohemiancoding.com/sketch -->
    <desc>Created with Sketch.</desc>
    <defs></defs>
    <g id="Page-1" stroke="none" stroke-width="1" fill="none" fill-rule="evenodd">
        <g id="Client-side---chat-max-on-2" transform="translate(-1131.000000, -483.000000)" fill="#FFFFFF">
            <g id="Group-2" transform="translate(1102.000000, 483.000000)">
                <path d="M39.0114604,5.00044194 C39.3856971,5.00044194 39.7598504,5.00202557 40.1340871,5.0000252 C40.484986,4.99810817 40.6739381,4.83782819 40.670104,4.46800901 C40.6636028,3.84439236 40.66652,3.22069236 40.6690205,2.5970757 C40.6705208,2.23325765 40.4954047,2.07122734 40.1312532,2.07522809 C39.3829466,2.08339628 38.6343065,2.08573005 37.8860832,2.0743946 C37.4995943,2.06847682 37.3259785,2.2367583 37.3302293,2.62049675 C37.3369805,3.23019413 37.3392309,3.84022491 37.3293124,4.44983895 C37.3229779,4.84182894 37.5175143,5.00302576 37.8889171,5.00085869 C38.2630704,4.99869162 38.6373071,5.00035859 39.0114604,5.00044194 L39.0114604,5.00044194 Z M37.3107256,13.746828 C36.9013157,13.746828 36.5282459,13.7489118 36.1552595,13.7461613 C35.8277815,13.7437441 35.6675849,13.9093584 35.666168,14.2299184 C35.6634175,14.8686212 35.6690852,15.5074074 35.6635008,16.1460268 C35.6604169,16.4927584 35.8324491,16.6664575 36.1675118,16.6671243 C38.0559483,16.670875 39.9443849,16.6710417 41.8328215,16.6667909 C42.1667173,16.6660408 42.3399164,16.4913414 42.3368325,16.1447766 C42.3314981,15.5199097 42.3331651,14.8950428 42.3363324,14.2701759 C42.3380827,13.9071914 42.1673841,13.7359093 41.8008155,13.7447443 C41.4319132,13.7534126 41.0625941,13.746578 40.6686037,13.746578 C40.6686037,13.5384557 40.6686037,13.3875108 40.6686037,13.2365659 C40.6686037,11.2509445 40.6696039,9.26532307 40.6678536,7.27961829 C40.6674368,6.80903026 40.5503316,6.66550341 40.144589,6.66391978 C38.825509,6.65875215 37.5063455,6.66550341 36.1872654,6.65966899 C35.8137789,6.65800201 35.6612504,6.83928592 35.6637509,7.19660276 C35.6681683,7.80755037 35.6725025,8.41866469 35.6620839,9.02944561 C35.6554993,9.42018537 35.844618,9.58721661 36.2188547,9.58504954 C36.5761715,9.58304917 36.9334884,9.5846328 37.3107256,9.5846328 L37.3107256,13.746828 Z M38.9817882,6.56102306e-06 C44.5228247,-0.00624460832 48.9949112,4.45525663 48.9999955,9.99445946 C49.0051632,15.5207432 44.5259086,19.9994977 38.9960409,19.9973306 C33.4627558,19.9951635 29.005172,15.5309951 29.0000043,9.98654131 C28.99492,4.47951116 33.4660898,0.00625773037 38.9817882,6.56102306e-06 L38.9817882,6.56102306e-06 Z" id="Fill-1-Copy-2"></path>
            </g>
        </g>
    </g>
</svg>