<?xml version="1.0" encoding="utf-8"?>
<!-- Generator: Adobe Illustrator 16.0.0, SVG Export Plug-In . SVG Version: 6.00 Build 0)  -->
<!DOCTYPE svg PUBLIC "-//W3C//DTD SVG 1.1//EN" "http://www.w3.org/Graphics/SVG/1.1/DTD/svg11.dtd">
<svg version="1.1" id="Layer_1" xmlns="http://www.w3.org/2000/svg" xmlns:xlink="http://www.w3.org/1999/xlink" x="0px" y="0px"
	 width="246px" height="80px" viewBox="0 0 246 80" enable-background="new 0 0 246 80" xml:space="preserve">
<path fill-rule="evenodd" clip-rule="evenodd" fill="#868789" d="M67.979,61.543c3.418-0.909,5.855-2.4,7.31-4.51
	c1.382-2,1.418-4.183,0.218-6.474c-1.018-1.928-2.509-3.273-4.583-4.146c-2.036-0.837-5.418-1.273-10.11-1.236
	c1.091,2.437,2.218,5.019,3.346,7.673C65.396,55.651,66.633,58.524,67.979,61.543z M49.322,29.212L49.322,29.212z M49.322,29.212
	c-2.728,0.618-4.728,1.527-6.037,2.728c-1.345,1.236-1.818,2.546-1.382,3.964c0.437,1.418,1.564,2.546,3.382,3.31
	c1.818,0.801,4.655,1.164,8.438,1.164c-0.8-2-1.564-3.964-2.291-5.855C50.704,32.703,50.013,30.921,49.322,29.212z M38.593,56.233
	L38.593,56.233z M38.593,56.233c-1.345-2.765-2.109-5.892-2.109-9.201c0-1.892,0.254-3.746,0.727-5.491
	c0.073,0.072,0.182,0.145,0.254,0.218c1.782,1.236,4.11,2.073,6.946,2.51c3.892,0.618,7.638,0.909,11.238,0.909
	c1.019,2.582,2.109,5.272,3.201,8.109c1.164,2.946,2.364,6.001,3.637,9.165c-8.619,0.836-10.874-1.964-12.875-4.291
	C47.722,55.942,46.012,54.124,38.593,56.233z M71.143,30.921L71.143,30.921z M71.143,30.921c3.71,3.164,6.328,7.565,7.165,12.583
	c-1.164-0.654-2.437-1.199-3.818-1.636c-2.073-0.655-4.474-1.128-7.237-1.382c-1.455-0.109-4.292-0.182-8.546-0.146
	c-0.909-2.109-1.818-4.182-2.655-6.146c-0.836-1.891-1.673-3.746-2.437-5.528c6.146-0.218,7.165,1.091,8.51,2.037
	C63.396,31.612,64.997,32.194,71.143,30.921z"/>
<path fill-rule="evenodd" clip-rule="evenodd" fill="#FFC900" d="M29.611,16.374v0.255c-4.583,7.564-6.874,14.111-6.874,19.603v2.8
	c0,7.746,4.219,15.384,12.729,22.911c6.328,3.747,13.383,5.602,21.13,5.602h2.037l0.254,0.254h0.254
	C46.012,73.071,18.7,68.744,18.7,39.54C18.7,30.63,22.337,22.92,29.611,16.374z M60.16,10.264L60.16,10.264z M60.16,10.264v0.254
	c0,14.838-2.073,13.383-18.33,13.493c-5.528,0.036-10.947,2.8-16.293,8.401v-0.509C32.338,12.773,42.849,8.736,60.16,10.264z"/>
<path fill-rule="evenodd" clip-rule="evenodd" fill="#868789" d="M161.045,52.487c0,0.255-0.255,0.873-1.019,0.873
	c-0.327,0-0.654-0.219-0.654-0.691c0-0.836,0.945-0.909,1.673-0.909V52.487z M161.444,51.396L161.444,51.396z M161.444,51.396
	c0-0.655-0.218-1.382-1.2-1.382c-0.363,0-0.727,0.072-1.055,0.29l0.146,0.292c0.219-0.183,0.546-0.292,0.837-0.292
	c0.873,0,0.873,0.765,0.873,1.128c-1.383-0.036-2.109,0.473-2.109,1.272c0,0.51,0.363,0.982,1.055,0.982
	c0.509,0,0.909-0.291,1.055-0.546h0.036l0.036,0.474h0.4c-0.037-0.255-0.073-0.546-0.073-0.837V51.396z M158.099,50.087
	L158.099,50.087z M158.099,50.087h-0.399v3.528h0.399V50.087z M158.208,49.068L158.208,49.068z M158.208,49.068
	c0-0.182-0.109-0.327-0.327-0.327c-0.146,0-0.291,0.182-0.291,0.327c0,0.183,0.146,0.327,0.291,0.327
	C158.062,49.396,158.208,49.251,158.208,49.068z M156.79,53.142L156.79,53.142z M156.79,53.142
	c-0.183,0.109-0.437,0.219-0.837,0.219c-0.764,0-1.346-0.582-1.346-1.491c0-0.837,0.473-1.527,1.382-1.527
	c0.364,0,0.618,0.108,0.801,0.182l0.108-0.327c-0.108-0.073-0.473-0.182-0.873-0.182c-1.054,0-1.818,0.764-1.818,1.891
	c0,1.055,0.691,1.782,1.674,1.782c0.473,0,0.836-0.146,1.018-0.219L156.79,53.142z M153.371,51.469L153.371,51.469z M153.371,51.469
	c0-1.272-0.837-1.454-1.2-1.454c-0.582,0-0.982,0.29-1.164,0.69h-0.036l-0.036-0.618h-0.364c0,0.255,0.037,0.51,0.037,0.837v2.691
	h0.399v-2.183c0-0.582,0.437-1.091,1.055-1.091c0.691,0,0.909,0.545,0.909,1.2v2.073h0.4V51.469z M147.479,49.578L147.479,49.578z
	 M147.479,49.578h0.327l0.473-0.728l0.437,0.728h0.4l-0.691-1.019h-0.291L147.479,49.578z M147.225,51.542L147.225,51.542z
	 M147.225,51.542c0.073-0.546,0.4-1.237,1.128-1.237c0.764,0,0.981,0.728,0.981,1.237H147.225z M149.443,53.179L149.443,53.179z
	 M149.443,53.179c-0.182,0.072-0.437,0.182-0.946,0.182c-0.69,0-1.272-0.4-1.272-1.527h2.51c0-0.073,0-0.146,0-0.219
	c0-0.545-0.219-1.6-1.346-1.6c-0.909,0-1.564,0.727-1.564,1.891c0,1.055,0.619,1.782,1.637,1.782c0.582,0,0.945-0.146,1.092-0.219
	L149.443,53.179z M145.552,52.196L145.552,52.196z M145.552,52.196c0,0.509-0.363,1.164-1.091,1.164
	c-0.801,0-1.164-0.691-1.164-1.491c0-0.873,0.473-1.527,1.2-1.527c0.546,0,1.055,0.437,1.055,1.127V52.196z M145.952,48.414
	L145.952,48.414z M145.952,48.414h-0.4v2.183c-0.182-0.292-0.546-0.582-1.091-0.582c-0.873,0-1.601,0.69-1.601,1.891
	c0,1.091,0.655,1.782,1.527,1.782c0.618,0,1.019-0.327,1.2-0.691l0.037,0.619h0.363c0-0.219-0.036-0.583-0.036-0.837V48.414z
	 M142.024,50.087L142.024,50.087z M142.024,50.087h-0.4v3.528h0.4V50.087z M142.097,49.068L142.097,49.068z M142.097,49.068
	c0-0.182-0.108-0.327-0.291-0.327c-0.182,0-0.291,0.182-0.291,0.327c0,0.183,0.109,0.327,0.291,0.327
	C141.988,49.396,142.097,49.251,142.097,49.068z M140.533,50.087L140.533,50.087z M140.533,50.087l-0.801,2.146
	c-0.108,0.327-0.254,0.655-0.327,0.946c-0.108-0.291-0.218-0.619-0.327-0.946l-0.8-2.146h-0.437l1.346,3.528h0.363l1.419-3.528
	H140.533z M134.933,51.542L134.933,51.542z M134.933,51.542c0.072-0.546,0.399-1.237,1.127-1.237c0.8,0,0.982,0.728,0.982,1.237
	H134.933z M137.151,53.179L137.151,53.179z M137.151,53.179c-0.183,0.072-0.437,0.182-0.946,0.182c-0.69,0-1.272-0.4-1.272-1.527
	h2.509c0-0.073,0-0.146,0-0.219c0-0.545-0.218-1.6-1.346-1.6c-0.909,0-1.563,0.727-1.563,1.891c0,1.055,0.618,1.782,1.637,1.782
	c0.582,0,0.945-0.146,1.091-0.219L137.151,53.179z M134.132,50.015L134.132,50.015z M134.132,50.015c-0.036,0-0.108,0-0.145,0
	c-0.474,0-0.837,0.327-0.982,0.764h-0.036v-0.691h-0.364c0,0.327,0.037,0.691,0.037,1.055v2.474h0.399V51.65
	c0-0.618,0.327-1.272,0.909-1.272c0.073,0,0.146,0,0.182,0.036V50.015z M129.368,48.996L129.368,48.996z M129.368,48.996
	c0.146,0,0.363-0.036,0.654-0.036c0.728,0,1.31,0.291,1.31,1.091c0,0.764-0.51,1.2-1.382,1.2c-0.219,0-0.4-0.037-0.582-0.073V48.996
	z M128.968,53.615L128.968,53.615z M128.968,53.615h0.4v-2.109c0.182,0.072,0.363,0.072,0.582,0.072c0.8,0,1.782-0.364,1.782-1.563
	c0-0.437-0.183-1.383-1.673-1.383c-0.437,0-0.801,0.037-1.092,0.073V53.615z M124.021,51.542L124.021,51.542z M124.021,51.542
	c0.037-0.546,0.364-1.237,1.092-1.237c0.8,0,1.018,0.728,1.018,1.237H124.021z M126.24,53.179L126.24,53.179z M126.24,53.179
	c-0.182,0.072-0.473,0.182-0.945,0.182c-0.691,0-1.31-0.4-1.31-1.527h2.546c0-0.073,0-0.146,0-0.219c0-0.545-0.219-1.6-1.382-1.6
	c-0.909,0-1.564,0.727-1.564,1.891c0,1.055,0.619,1.782,1.637,1.782c0.618,0,0.946-0.146,1.128-0.219L126.24,53.179z
	 M122.349,52.196L122.349,52.196z M122.349,52.196c0,0.509-0.363,1.164-1.091,1.164c-0.8,0-1.2-0.691-1.2-1.491
	c0-0.873,0.473-1.527,1.2-1.527c0.546,0,1.091,0.437,1.091,1.127V52.196z M122.749,48.414L122.749,48.414z M122.749,48.414h-0.4
	v2.183h-0.036c-0.146-0.292-0.509-0.582-1.091-0.582c-0.837,0-1.564,0.69-1.564,1.891c0,1.091,0.655,1.782,1.492,1.782
	c0.617,0,1.054-0.327,1.236-0.691l0.036,0.619h0.363c-0.036-0.219-0.036-0.583-0.036-0.837V48.414z M117.112,51.833L117.112,51.833z
	 M117.112,51.833c0,0.872-0.546,1.527-1.236,1.527c-0.691,0-1.201-0.655-1.201-1.491c0-0.764,0.364-1.564,1.201-1.564
	C116.748,50.305,117.112,51.178,117.112,51.833z M115.912,50.015L115.912,50.015z M115.912,50.015c-0.909,0-1.673,0.654-1.673,1.854
	c0,1.127,0.728,1.818,1.6,1.818c0.801,0,1.673-0.546,1.673-1.854C117.512,50.741,116.857,50.015,115.912,50.015z M112.856,48.741
	L112.856,48.741z M112.856,48.741c0,0.219-0.072,0.291-0.182,0.291c-0.108,0-0.218-0.036-0.327-0.109
	c-0.182-0.108-0.291-0.182-0.437-0.182c-0.291,0-0.437,0.255-0.437,0.654h0.255c0-0.182,0.073-0.327,0.182-0.327
	c0.109,0,0.219,0.073,0.364,0.146c0.108,0.109,0.254,0.146,0.399,0.146c0.327,0,0.437-0.255,0.437-0.618H112.856z M113.039,52.487
	L113.039,52.487z M113.039,52.487c0,0.255-0.291,0.873-1.019,0.873c-0.364,0-0.69-0.219-0.69-0.691c0-0.836,0.945-0.909,1.709-0.909
	V52.487z M113.438,51.396L113.438,51.396z M113.438,51.396c0-0.655-0.218-1.382-1.236-1.382c-0.363,0-0.728,0.072-1.055,0.29
	l0.146,0.292c0.219-0.183,0.546-0.292,0.873-0.292c0.873,0,0.873,0.765,0.873,1.128c-1.383-0.036-2.146,0.473-2.146,1.272
	c0,0.51,0.363,0.982,1.054,0.982c0.51,0,0.909-0.291,1.092-0.546l0.036,0.474h0.4c-0.037-0.255-0.037-0.546-0.037-0.837V51.396z
	 M109.512,50.015L109.512,50.015z M109.512,50.015c-1.056,0-1.782,0.764-1.782,1.891c0,0.909,0.473,1.563,1.236,1.746l-0.327,0.545
	c0.327,0.037,0.545,0.109,0.545,0.328c0.036,0.218-0.146,0.29-0.327,0.29c-0.146,0-0.291-0.036-0.4-0.108l-0.072,0.254
	c0.108,0.073,0.291,0.109,0.437,0.109c0.399,0,0.728-0.146,0.728-0.582c0-0.254-0.255-0.437-0.51-0.473l0.182-0.327
	c0.073,0,0.109,0,0.182,0c0.474,0,0.837-0.146,1.02-0.219l-0.11-0.327c-0.182,0.109-0.473,0.219-0.836,0.219
	c-0.8,0-1.346-0.582-1.346-1.491c0-0.837,0.473-1.527,1.383-1.527c0.363,0,0.617,0.108,0.763,0.182l0.146-0.327
	c-0.146-0.073-0.474-0.182-0.873-0.182H109.512z M106.492,52.487L106.492,52.487z M106.492,52.487c0,0.255-0.254,0.873-1.018,0.873
	c-0.327,0-0.655-0.219-0.655-0.691c0-0.836,0.945-0.909,1.673-0.909V52.487z M106.893,51.396L106.893,51.396z M106.893,51.396
	c0-0.655-0.219-1.382-1.2-1.382c-0.363,0-0.728,0.072-1.055,0.29l0.109,0.292c0.254-0.183,0.582-0.292,0.873-0.292
	c0.872,0,0.872,0.765,0.872,1.128c-1.382-0.036-2.109,0.473-2.109,1.272c0,0.51,0.364,0.982,1.055,0.982
	c0.51,0,0.909-0.291,1.055-0.546h0.037l0.036,0.474h0.4c-0.073-0.255-0.073-0.546-0.073-0.837V51.396z M103.146,52.196
	L103.146,52.196z M103.146,52.196c0,0.509-0.363,1.164-1.091,1.164c-0.8,0-1.164-0.691-1.164-1.491c0-0.873,0.437-1.527,1.164-1.527
	c0.582,0,1.091,0.437,1.091,1.127V52.196z M103.547,48.414L103.547,48.414z M103.547,48.414h-0.4v2.183
	c-0.182-0.292-0.545-0.582-1.127-0.582c-0.837,0-1.528,0.69-1.528,1.891c0,1.091,0.619,1.782,1.455,1.782
	c0.655,0,1.055-0.327,1.236-0.691l0.037,0.619h0.363c0-0.219-0.036-0.583-0.036-0.837V48.414z M99.655,51.469L99.655,51.469z
	 M99.655,51.469c0-1.272-0.873-1.454-1.236-1.454c-0.546,0-0.982,0.29-1.164,0.69l-0.036-0.618h-0.4
	c0.036,0.255,0.036,0.51,0.036,0.837v2.691h0.4v-2.183c0-0.582,0.473-1.091,1.055-1.091c0.691,0,0.946,0.545,0.946,1.2v2.073h0.399
	V51.469z M95.728,50.087L95.728,50.087z M95.728,50.087h-0.399v2.219c0,0.69-0.583,1.055-1.056,1.055
	c-0.654,0-0.873-0.546-0.873-1.273v-2H93v2.073c0,1.309,0.691,1.527,1.164,1.527c0.618,0,1.018-0.363,1.164-0.655h0.036v0.583h0.399
	c-0.036-0.255-0.036-0.546-0.036-0.873V50.087z M90.09,53.615L90.09,53.615z M90.09,53.615v-2.364h1.855v-0.327H90.09v-1.928h2.037
	v-0.327H89.69v4.946H90.09z"/>
<path fill-rule="evenodd" clip-rule="evenodd" fill="#868789" d="M161.554,55.396h-0.363v4.801h0.363V55.396z M160.135,56.924
	L160.135,56.924z M160.135,56.924h-0.399v3.273h0.399V56.924z M160.208,56.015L160.208,56.015z M160.208,56.015
	c0-0.182-0.109-0.291-0.255-0.291c-0.182,0-0.291,0.146-0.291,0.291c0,0.146,0.109,0.291,0.255,0.291
	C160.099,56.306,160.208,56.196,160.208,56.015z M158.826,57.069L158.826,57.069z M158.826,57.069
	c-0.182-0.108-0.437-0.218-0.728-0.218c-0.618,0-1.019,0.437-1.019,0.909c0,0.4,0.291,0.69,0.837,0.909
	c0.437,0.182,0.654,0.363,0.654,0.69c0,0.364-0.255,0.619-0.728,0.619c-0.29,0-0.545-0.109-0.727-0.219l-0.146,0.291
	c0.254,0.146,0.545,0.219,0.836,0.219c0.655,0,1.128-0.328,1.128-0.946c0-0.473-0.327-0.764-0.837-0.981
	c-0.437-0.182-0.654-0.291-0.654-0.654c0-0.292,0.218-0.51,0.618-0.51c0.291,0,0.509,0.109,0.618,0.182L158.826,57.069z
	 M155.844,59.143L155.844,59.143z M155.844,59.143c0,0.255-0.218,0.837-0.909,0.837c-0.327,0-0.654-0.219-0.654-0.655
	c0-0.764,0.909-0.836,1.563-0.836V59.143z M156.244,58.161L156.244,58.161z M156.244,58.161c0-0.619-0.219-1.31-1.128-1.31
	c-0.327,0-0.69,0.109-0.981,0.291l0.109,0.254c0.218-0.145,0.545-0.218,0.8-0.218c0.8,0,0.8,0.691,0.8,1.019
	c-1.272-0.036-1.928,0.4-1.928,1.163c0,0.474,0.291,0.91,0.946,0.91c0.473,0,0.836-0.255,1.019-0.51l0.036,0.437h0.363
	c-0.036-0.218-0.036-0.509-0.036-0.764V58.161z M153.553,56.888L153.553,56.888z M153.553,56.888c-0.036,0-0.073-0.036-0.146-0.036
	c-0.4,0-0.764,0.327-0.873,0.728h-0.036v-0.655h-0.363c0.036,0.328,0.036,0.655,0.036,0.982v2.291h0.363v-1.782
	c0-0.618,0.327-1.2,0.873-1.2c0.072,0,0.109,0,0.146,0.037V56.888z M149.152,57.942L149.152,57.942z M149.152,57.942h0.546
	c0.654,0,1.272,0.255,1.272,0.982c0,0.764-0.618,1.018-1.31,1.018c-0.218,0-0.399,0-0.509-0.036V57.942z M149.152,57.615
	L149.152,57.615z M149.152,57.615v-1.673c0.072-0.036,0.254-0.036,0.546-0.036c0.654,0,1.127,0.218,1.127,0.836
	c0,0.51-0.4,0.873-1.055,0.873H149.152z M150.389,57.725L150.389,57.725z M150.389,57.725c0.473-0.146,0.8-0.546,0.8-1.019
	c0-0.582-0.363-1.128-1.49-1.128c-0.328,0-0.691,0.037-0.909,0.109v4.51c0.145,0.036,0.436,0.036,0.8,0.036
	c0.654,0,1.127-0.109,1.418-0.437c0.327-0.29,0.364-0.654,0.364-0.872c0-0.728-0.582-1.055-0.982-1.164V57.725z M146.134,58.561
	L146.134,58.561z M146.134,58.561c0,0.8-0.473,1.419-1.128,1.419c-0.618,0-1.127-0.619-1.127-1.382c0-0.691,0.364-1.419,1.164-1.419
	C145.807,57.179,146.134,57.979,146.134,58.561z M145.043,56.852L145.043,56.852z M145.043,56.852c-0.8,0-1.527,0.618-1.527,1.746
	c0,1.054,0.654,1.673,1.49,1.673c0.691,0,1.528-0.51,1.528-1.71C146.534,57.542,145.952,56.852,145.043,56.852z M142.352,58.888
	L142.352,58.888z M142.352,58.888c0,0.473-0.327,1.092-1.019,1.092c-0.728,0-1.055-0.655-1.055-1.382c0-0.801,0.4-1.419,1.091-1.419
	c0.51,0,0.982,0.4,0.982,1.055V58.888z M142.715,55.396L142.715,55.396z M142.715,55.396h-0.363v2
	c-0.146-0.254-0.51-0.545-1.019-0.545c-0.8,0-1.454,0.69-1.454,1.782c0,0.981,0.581,1.637,1.382,1.637
	c0.581,0,0.945-0.291,1.127-0.655l0.036,0.582h0.327c0-0.218-0.036-0.509-0.036-0.764V55.396z M137.333,59.143L137.333,59.143z
	 M137.333,59.143c0,0.255-0.255,0.837-0.946,0.837c-0.327,0-0.618-0.219-0.618-0.655c0-0.764,0.873-0.836,1.564-0.836V59.143z
	 M137.696,58.161L137.696,58.161z M137.696,58.161c0-0.619-0.218-1.31-1.128-1.31c-0.326,0-0.69,0.109-0.981,0.291l0.109,0.254
	c0.254-0.145,0.546-0.218,0.8-0.218c0.8,0,0.8,0.691,0.8,1.019c-1.272-0.036-1.927,0.4-1.927,1.163c0,0.474,0.327,0.91,0.945,0.91
	c0.509,0,0.837-0.255,1.019-0.51l0.036,0.437h0.363c-0.036-0.218-0.036-0.509-0.036-0.764V58.161z M134.241,58.888L134.241,58.888z
	 M134.241,58.888c0,0.473-0.363,1.092-1.019,1.092c-0.728,0-1.091-0.655-1.091-1.382c0-0.801,0.437-1.419,1.091-1.419
	c0.51,0,1.019,0.4,1.019,1.055V58.888z M134.605,55.396L134.605,55.396z M134.605,55.396h-0.364v2h-0.036
	c-0.146-0.254-0.473-0.545-1.019-0.545c-0.764,0-1.418,0.69-1.418,1.782c0,0.981,0.582,1.637,1.346,1.637
	c0.582,0,0.981-0.291,1.127-0.655h0.036v0.582h0.364c-0.036-0.218-0.036-0.509-0.036-0.764V55.396z M128.896,58.27L128.896,58.27z
	 M128.896,58.27c0.072-0.473,0.363-1.091,1.018-1.091c0.728,0,0.946,0.618,0.909,1.091H128.896z M130.932,59.797L130.932,59.797z
	 M130.932,59.797c-0.182,0.073-0.399,0.183-0.872,0.183c-0.619,0-1.164-0.4-1.164-1.419h2.327c0-0.072,0-0.109,0-0.218
	c0-0.51-0.218-1.491-1.272-1.491c-0.837,0-1.419,0.69-1.419,1.782c0,0.945,0.546,1.637,1.491,1.637c0.546,0,0.873-0.109,1.019-0.183
	L130.932,59.797z M127.586,58.561L127.586,58.561z M127.586,58.561c0,0.8-0.473,1.419-1.127,1.419c-0.655,0-1.128-0.619-1.128-1.382
	c0-0.691,0.364-1.419,1.128-1.419C127.295,57.179,127.586,57.979,127.586,58.561z M126.495,56.852L126.495,56.852z M126.495,56.852
	c-0.8,0-1.527,0.618-1.527,1.746c0,1.054,0.654,1.673,1.491,1.673c0.69,0,1.527-0.51,1.527-1.71
	C127.986,57.542,127.368,56.852,126.495,56.852z M123.985,55.615L123.985,55.615z M123.985,55.615h-0.473l-0.945,2.582
	c-0.219,0.582-0.364,1.055-0.473,1.491h-0.036c-0.146-0.474-0.292-0.909-0.51-1.527l-0.909-2.546h-0.437l-0.327,4.582h0.364
	l0.145-2.073c0.037-0.764,0.073-1.527,0.109-2.072c0.146,0.509,0.327,1.054,0.582,1.745l0.836,2.4h0.255l0.909-2.437
	c0.255-0.655,0.437-1.2,0.618-1.709c0,0.509,0.037,1.345,0.073,2.036l0.146,2.109h0.363L123.985,55.615z M117.148,59.143
	L117.148,59.143z M117.148,59.143c0,0.255-0.219,0.837-0.909,0.837c-0.327,0-0.618-0.219-0.618-0.655
	c0-0.764,0.872-0.836,1.527-0.836V59.143z M117.549,58.161L117.549,58.161z M117.549,58.161c0-0.619-0.219-1.31-1.128-1.31
	c-0.327,0-0.69,0.109-0.981,0.291l0.145,0.254c0.219-0.145,0.51-0.218,0.765-0.218c0.8,0,0.8,0.691,0.8,1.019
	c-1.272-0.036-1.928,0.4-1.928,1.163c0,0.474,0.327,0.91,0.945,0.91c0.51,0,0.837-0.255,1.019-0.51l0.036,0.437h0.364
	c-0.036-0.218-0.036-0.509-0.036-0.764V58.161z M114.058,58.888L114.058,58.888z M114.058,58.888c0,0.473-0.328,1.092-0.982,1.092
	c-0.728,0-1.091-0.655-1.091-1.382c0-0.801,0.437-1.419,1.091-1.419c0.509,0,0.982,0.4,0.982,1.055V58.888z M114.457,55.396
	L114.457,55.396z M114.457,55.396h-0.399v2c-0.146-0.254-0.474-0.545-1.019-0.545c-0.764,0-1.419,0.69-1.419,1.782
	c0,0.981,0.582,1.637,1.346,1.637c0.582,0,0.982-0.291,1.128-0.655h0.036v0.582h0.327c0-0.218,0-0.509,0-0.764V55.396z
	 M109.038,59.143L109.038,59.143z M109.038,59.143c0,0.255-0.254,0.837-0.945,0.837c-0.327,0-0.618-0.219-0.618-0.655
	c0-0.764,0.873-0.836,1.563-0.836V59.143z M109.401,58.161L109.401,58.161z M109.401,58.161c0-0.619-0.218-1.31-1.127-1.31
	c-0.327,0-0.654,0.109-0.945,0.291l0.109,0.254c0.218-0.145,0.509-0.218,0.8-0.218c0.8,0,0.8,0.691,0.8,1.019
	c-1.272-0.036-1.964,0.4-1.964,1.163c0,0.474,0.327,0.91,0.982,0.91c0.473,0,0.836-0.255,0.981-0.51h0.037l0.036,0.437h0.327
	c-0.037-0.218-0.037-0.509-0.037-0.764V58.161z M106.456,57.069L106.456,57.069z M106.456,57.069
	c-0.182-0.108-0.437-0.218-0.728-0.218c-0.654,0-1.018,0.437-1.018,0.909c0,0.4,0.29,0.69,0.8,0.909
	c0.473,0.182,0.654,0.363,0.654,0.69c0,0.364-0.218,0.619-0.728,0.619c-0.254,0-0.545-0.109-0.69-0.219l-0.146,0.291
	c0.218,0.146,0.509,0.219,0.836,0.219c0.655,0,1.092-0.328,1.092-0.946c0-0.473-0.291-0.764-0.801-0.981
	c-0.437-0.182-0.654-0.291-0.654-0.654c0-0.292,0.218-0.51,0.582-0.51c0.327,0,0.545,0.109,0.654,0.182L106.456,57.069z
	 M103.474,59.143L103.474,59.143z M103.474,59.143c0,0.255-0.254,0.837-0.945,0.837c-0.327,0-0.618-0.219-0.618-0.655
	c0-0.764,0.873-0.836,1.563-0.836V59.143z M103.838,58.161L103.838,58.161z M103.838,58.161c0-0.619-0.219-1.31-1.128-1.31
	c-0.327,0-0.654,0.109-0.945,0.291l0.109,0.254c0.218-0.145,0.509-0.218,0.8-0.218c0.8,0,0.8,0.691,0.8,1.019
	c-1.272-0.036-1.963,0.4-1.963,1.163c0,0.474,0.326,0.91,0.981,0.91c0.473,0,0.837-0.255,0.981-0.51h0.037l0.036,0.437h0.327
	c-0.036-0.218-0.036-0.509-0.036-0.764V58.161z M100.965,59.761L100.965,59.761z M100.965,59.761
	c-0.255,0.109-0.618,0.182-0.982,0.182c-1.163,0-1.854-0.764-1.854-2c0-1.31,0.728-2.072,1.891-2.072
	c0.364,0,0.691,0.072,0.909,0.182l0.109-0.292c-0.109-0.072-0.437-0.218-1.019-0.218c-1.418,0-2.291,0.982-2.291,2.4
	c0,1.601,1.019,2.328,2.146,2.328c0.545,0,0.945-0.109,1.163-0.219L100.965,59.761z M95.182,59.143L95.182,59.143z M95.182,59.143
	c0,0.255-0.218,0.837-0.945,0.837c-0.327,0-0.618-0.219-0.618-0.655c0-0.764,0.873-0.836,1.563-0.836V59.143z M95.546,58.161
	L95.546,58.161z M95.546,58.161c0-0.619-0.182-1.31-1.127-1.31c-0.292,0-0.655,0.109-0.946,0.291l0.109,0.254
	c0.219-0.145,0.509-0.218,0.8-0.218c0.8,0,0.8,0.691,0.8,1.019c-1.272-0.036-1.927,0.4-1.927,1.163c0,0.474,0.291,0.91,0.945,0.91
	c0.473,0,0.836-0.255,0.981-0.51h0.037l0.036,0.437h0.327c-0.036-0.218-0.036-0.509-0.036-0.764V58.161z M92.091,58.888
	L92.091,58.888z M92.091,58.888c0,0.473-0.327,1.092-1.018,1.092c-0.728,0-1.055-0.655-1.055-1.382c0-0.801,0.4-1.419,1.091-1.419
	c0.509,0,0.982,0.4,0.982,1.055V58.888z M92.455,55.396L92.455,55.396z M92.455,55.396h-0.364v2
	c-0.146-0.254-0.509-0.545-1.018-0.545c-0.8,0-1.455,0.69-1.455,1.782c0,0.981,0.582,1.637,1.382,1.637
	c0.582,0,0.945-0.291,1.127-0.655l0.036,0.582h0.327c0-0.218-0.036-0.509-0.036-0.764V55.396z"/>
<path fill-rule="evenodd" clip-rule="evenodd" fill="#FFC900" d="M92.782,26.812v0.073c-1.309,2.146-1.964,4-1.964,5.564v0.8
	c0,2.182,1.2,4.328,3.601,6.474c1.781,1.055,3.781,1.6,6,1.6h0.582l0.073,0.072h0.072c-3.746,1.492-11.492,0.255-11.492-8
	C89.654,30.848,90.709,28.666,92.782,26.812z M101.438,25.066L101.438,25.066z M101.438,25.066v0.073c0,4.219-0.582,3.818-5.2,3.818
	c-1.564,0.037-3.092,0.8-4.619,2.4v-0.146C93.545,25.793,96.527,24.666,101.438,25.066z"/>
<rect x="103.802" y="24.993" fill-rule="evenodd" clip-rule="evenodd" fill="#FFC900" width="2.072" height="16.911"/>
<polygon fill-rule="evenodd" clip-rule="evenodd" fill="#FFC900" points="110.856,41.904 108.784,41.904 108.784,24.993 
	121.985,24.993 121.985,26.848 110.856,26.848 110.856,32.303 117.985,32.303 117.985,34.194 110.856,34.194 "/>
<path fill-rule="evenodd" clip-rule="evenodd" fill="#FFC900" d="M123.149,26.848v6.183h2.036c0.618,0,1.164,0,1.601-0.036
	c0.473-0.073,0.872-0.146,1.2-0.255c0.728-0.218,1.272-0.545,1.673-1.018c0.4-0.509,0.582-1.127,0.582-1.891
	c0-0.728-0.182-1.309-0.546-1.782c-0.363-0.436-0.873-0.727-1.527-0.945c-0.291-0.073-0.654-0.146-1.091-0.182
	c-0.4-0.073-0.946-0.073-1.601-0.073H123.149z M123.149,34.921L123.149,34.921z M123.149,34.921v6.983h-2.073V24.993h4.4
	c0.728,0,1.346,0,1.892,0.073c0.509,0.073,0.981,0.146,1.418,0.254c1.2,0.327,2.073,0.873,2.691,1.637s0.945,1.746,0.945,2.909
	c0,0.691-0.109,1.273-0.327,1.818c-0.218,0.546-0.546,1.019-0.909,1.418c-0.4,0.4-0.873,0.728-1.455,0.982
	c-0.545,0.255-1.163,0.437-1.818,0.545v0.037l5.019,7.237h-2.072l-5.237-6.983H123.149z"/>
<path fill-rule="evenodd" clip-rule="evenodd" fill="#FFC900" d="M138.97,27.612c-0.765,2.109-1.491,4-2.183,5.746l-0.654,1.6h5.673
	l-0.654-1.6c-0.691-1.746-1.419-3.673-2.146-5.746H138.97z M131.223,41.904L131.223,41.904z M131.223,41.904l6.838-16.911h1.818
	l6.909,16.911h-2.255l-2-5.092h-7.128l-2.001,5.092H131.223z"/>
<path fill-rule="evenodd" clip-rule="evenodd" fill="#FFC900" d="M161.518,33.431c0,1.273-0.182,2.473-0.546,3.527
	c-0.363,1.091-0.909,2-1.6,2.764c-0.655,0.8-1.491,1.381-2.474,1.819c-0.945,0.436-2.036,0.654-3.236,0.654
	c-1.236,0-2.328-0.219-3.31-0.654c-0.982-0.438-1.818-1.019-2.51-1.819c-0.654-0.764-1.2-1.673-1.527-2.764
	c-0.363-1.055-0.546-2.254-0.546-3.527s0.183-2.473,0.546-3.528c0.363-1.091,0.909-2,1.564-2.8c0.69-0.764,1.526-1.382,2.509-1.819
	c0.945-0.436,2.037-0.618,3.237-0.618c1.236,0,2.327,0.182,3.309,0.618c0.982,0.437,1.818,1.055,2.474,1.819
	c0.69,0.8,1.2,1.709,1.563,2.8C161.336,30.958,161.518,32.158,161.518,33.431z M159.48,33.431L159.48,33.431z M159.48,33.431
	c0-1.127-0.146-2.146-0.473-3.019c-0.291-0.873-0.691-1.563-1.2-2.182c-0.545-0.546-1.163-1.019-1.891-1.31
	c-0.691-0.291-1.455-0.436-2.291-0.436c-0.801,0-1.564,0.145-2.292,0.436c-0.69,0.291-1.309,0.764-1.854,1.31
	c-0.509,0.618-0.945,1.309-1.236,2.182c-0.291,0.873-0.437,1.892-0.437,3.019c0,1.164,0.146,2.146,0.437,3.019
	c0.327,0.873,0.728,1.563,1.236,2.146c0.546,0.618,1.164,1.019,1.892,1.309c0.69,0.328,1.454,0.473,2.291,0.473
	c0.8,0,1.563-0.146,2.291-0.473c0.691-0.291,1.31-0.691,1.854-1.309c0.509-0.582,0.909-1.273,1.2-2.146
	C159.335,35.576,159.48,34.594,159.48,33.431z"/>
<rect x="134.859" y="21.902" fill-rule="evenodd" clip-rule="evenodd" fill="#FFC900" width="8.256" height="1.854"/>
<path fill-rule="evenodd" clip-rule="evenodd" fill="#FFC900" d="M80.599,45.031H167.3v0.437H81.107
	C80.962,45.323,80.78,45.178,80.599,45.031z"/>
</svg>
